<svg xmlns="http://www.w3.org/2000/svg" xmlns:xlink="http://www.w3.org/1999/xlink" width="806.1" height="598.967" viewBox="0 0 806.1 598.967">
  <defs>
    <linearGradient id="linear-gradient" x1="0.5" x2="0.5" y2="1" gradientUnits="objectBoundingBox">
      <stop offset="0" stop-color="#fff"/>
      <stop offset="0.297" stop-color="#e7eafa"/>
      <stop offset="1" stop-color="#0128f1"/>
    </linearGradient>
  </defs>
  <g id="base" transform="translate(-97 -97.1)">
    <g id="g125">
      <g id="path91">
        <path id="Path_1" data-name="Path 1" d="M821.5,694.067a42.357,42.357,0,0,1-10.825-1.184l-.051-.015-.045-.011A89.012,89.012,0,0,1,791.3,684.7a115.4,115.4,0,0,1-37.381-32.981c-5.559-7.607-11.976-19.087-19.07-34.12-5.7-12.079-11.84-26.448-18.247-42.708-10.917-27.706-18.922-51.588-19-51.826l-.1-.3-.185-.252a26.471,26.471,0,0,0-6.215-5.788,17.81,17.81,0,0,0-7.185-2.918l-.107-.011H683.7l-183.7.1-183.7-.1h-.107l-.107.011a17.815,17.815,0,0,0-7.185,2.918,26.471,26.471,0,0,0-6.215,5.788l-.185.253-.1.3c-.08.239-8.09,24.162-19.008,51.881-6.406,16.264-12.544,30.631-18.244,42.7-7.092,15.023-13.506,26.485-19.064,34.068A115.985,115.985,0,0,1,208.7,684.665a89.773,89.773,0,0,1-19.284,8.194l-.05.013-.043.012a42.334,42.334,0,0,1-10.821,1.183c-10.119,0-26-2.589-44.181-14.922-6.981-4.735-13.178-11.5-18.419-20.116a112.1,112.1,0,0,1-10.759-24.264,156.518,156.518,0,0,1-4.961-20.441c-.821-4.767-1.133-7.959-1.183-8.508.007-1.376.1-17.613.686-36.263.8-25.606,2.14-44.1,3.879-53.488.33-1.762.816-4.459,1.43-7.874,2.4-13.358,6.88-38.223,12.33-64.365,6.66-31.946,12.772-56.2,18.168-72.083v-.006c5.646-16.818,9.21-32.62,12.073-45.317,1.81-8.029,3.374-14.963,4.927-19.583a242.347,242.347,0,0,1,10.121-25.087c3.209-6.877,6.809-13.861,10.7-20.757,6.5-11.522,11.664-18.973,11.914-19.333.206-.282,2.513-3.455,4.858-6.96,4.6-6.876,5.388-9.081,5.581-10.142.342-1.885,2.45-5.22,3.93-7.226a110.063,110.063,0,0,1,13.637-2.631c5.736-.813,12.171-1.461,19.126-1.926,8.693-.58,18.228-.875,28.339-.875,9.892,0,18.807.246,26.5.732,6.187.39,11.6.936,16.1,1.622,6.293.96,9.042,1.937,9.866,2.277a22.5,22.5,0,0,0,6.205,4.938,18.257,18.257,0,0,0,6.553,1.661,52.8,52.8,0,0,0,5.4.276c.372,0,.619,0,.7-.006H364.8c.049.21.1.439.134.649l.293,1.65H634.766l.218-1.752c.022-.172.056-.367.094-.548h33.055c.8,0,2.9-.025,5.255-.252a20.748,20.748,0,0,0,7.127-1.67l.02-.011.019-.01a24.6,24.6,0,0,0,6.172-4.922c.807-.335,3.552-1.317,9.878-2.282,4.5-.686,9.913-1.232,16.1-1.622,7.689-.486,16.6-.732,26.5-.732,10.133,0,19.68.294,28.378.875,6.959.465,13.392,1.113,19.121,1.926a108.9,108.9,0,0,1,13.6,2.63c1.481,2.008,3.591,5.348,3.932,7.227v.011c.123.656.451,2.4,5.577,10.09,2.356,3.535,4.675,6.745,4.858,7,.234.336,5.406,7.793,11.916,19.335,3.889,6.9,7.489,13.88,10.7,20.757A242.336,242.336,0,0,1,847.4,306.835c1.463,4.47,2.95,11.1,4.673,18.771,2.895,12.9,6.5,28.952,12.329,46.137,5.4,15.885,11.508,40.137,18.168,72.083,5.45,26.142,9.925,51.007,12.33,64.365.614,3.415,1.1,6.112,1.43,7.877,1.781,9.39,3.153,27.887,3.967,53.5.593,18.65.691,34.879.7,36.252-.051.549-.363,3.74-1.184,8.508a156.51,156.51,0,0,1-4.961,20.441A112.1,112.1,0,0,1,884.1,659.029c-5.241,8.613-11.438,15.381-18.419,20.116C847.493,691.478,831.615,694.067,821.5,694.067Z" fill="url(#linear-gradient)"/>
        <path id="Path_2" data-name="Path 2" d="M821.5,692.067c9.838,0,25.294-2.529,43.058-14.577,6.73-4.565,12.722-11.113,17.808-19.461a109.972,109.972,0,0,0,10.56-23.788,154.52,154.52,0,0,0,4.908-20.174c.781-4.522,1.1-7.612,1.168-8.339-.011-1.906-.116-17.84-.7-36.1-.811-25.506-2.171-43.9-3.932-53.182v-.009c-.331-1.772-.817-4.472-1.433-7.891-2.4-13.349-6.875-38.2-12.319-64.311-6.643-31.866-12.734-56.039-18.1-71.849-5.866-17.285-9.481-33.4-12.387-46.341-1.711-7.625-3.189-14.21-4.623-18.588a240.264,240.264,0,0,0-10.017-24.829c-3.184-6.826-6.755-13.758-10.616-20.605-6.413-11.376-11.521-18.76-11.831-19.207-.273-.376-2.529-3.5-4.891-7.046-4.717-7.076-5.619-9.446-5.878-10.832l0-.011v-.01c-.216-1.186-1.691-3.75-3.17-5.84a116.011,116.011,0,0,0-12.881-2.424c-5.674-.8-12.043-1.436-18.932-1.892-8.609-.571-18.057-.86-28.082-.86-9.591,0-18.26.232-25.766.69-6.067.37-11.4.888-15.853,1.54a52.135,52.135,0,0,0-9.7,2.1,26.3,26.3,0,0,1-6.377,4.983l-.039.022-.04.02a22.214,22.214,0,0,1-7.848,1.882c-2.442.237-4.623.262-5.448.262H636.826l-.275,2.3H366.9l-3.355,0-.407-2.3h-31.1c-.107,0-.356.006-.716.006a54.836,54.836,0,0,1-5.618-.287,20.158,20.158,0,0,1-7.274-1.882,24.2,24.2,0,0,1-6.441-5.014,52.441,52.441,0,0,0-9.672-2.093c-4.452-.652-9.786-1.17-15.853-1.54-7.506-.458-16.175-.69-25.766-.69-10.005,0-19.44.289-28.046.86-6.885.457-13.256,1.094-18.938,1.893a117.213,117.213,0,0,0-12.912,2.425c-1.48,2.091-2.953,4.653-3.169,5.838-.258,1.424-1.16,3.832-5.885,10.9-2.358,3.524-4.611,6.624-4.894,7.012-.37.532-5.453,7.895-11.825,19.2-3.861,6.847-7.432,13.779-10.616,20.605a240.241,240.241,0,0,0-10.023,24.847c-1.521,4.523-3.074,11.411-4.872,19.386-2.873,12.742-6.449,28.6-12.128,45.513l0,.007,0,.006c-5.369,15.809-11.46,39.982-18.1,71.848-5.444,26.115-9.917,50.962-12.319,64.311-.616,3.419-1.1,6.119-1.433,7.891h0c-1.721,9.289-3.051,27.675-3.846,53.17-.569,18.266-.674,34.216-.685,36.123.07.73.387,3.819,1.168,8.338a154.525,154.525,0,0,0,4.908,20.174,109.974,109.974,0,0,0,10.56,23.788c5.086,8.348,11.078,14.9,17.808,19.461,17.764,12.048,33.22,14.577,43.059,14.577a41.047,41.047,0,0,0,10.253-1.1l.07-.022.111-.028a86.822,86.822,0,0,0,18.669-7.933,113.971,113.971,0,0,0,36.867-32.449c5.481-7.478,11.828-18.827,18.865-33.73,5.68-12.03,11.8-26.353,18.188-42.573,10.9-27.673,18.9-51.561,18.979-51.8l.2-.594.37-.5a28.148,28.148,0,0,1,6.729-6.278,19.644,19.644,0,0,1,8.071-3.234l.213-.023h.215l183.7.1,183.7-.1h.215l.213.023a19.644,19.644,0,0,1,8.071,3.234,28.15,28.15,0,0,1,6.729,6.278l.369.5.2.592c.079.238,8.079,24.1,18.979,51.763,6.389,16.213,12.508,30.535,18.188,42.569,7.038,14.91,13.386,26.275,18.869,33.777a113.408,113.408,0,0,0,36.6,32.338,87.7,87.7,0,0,0,18.92,8.037l.077.016.112.035a41,41,0,0,0,10.255,1.1h0m0,4a43.49,43.49,0,0,1-11.4-1.267s-33.1-8.1-57.8-41.9-56.6-129.2-56.6-129.2a24.5,24.5,0,0,0-5.7-5.3,15.791,15.791,0,0,0-6.3-2.6l-183.7.1-183.7-.1a15.791,15.791,0,0,0-6.3,2.6,24.5,24.5,0,0,0-5.7,5.3s-31.9,95.5-56.6,129.2-57.8,41.9-57.8,41.9a43.48,43.48,0,0,1-11.4,1.267c-10.284,0-26.633-2.6-45.3-15.267C101.5,659.3,97,605.9,97,605.9s.3-67,4.6-90.2c2.9-15.5,17.7-102.5,32-144.6,9.3-27.7,13-53,17-64.9,12-35.7,33-65.7,33-65.7s9.5-13,10.1-16.3,4.7-8.6,4.7-8.6,17.5-5.7,62.3-5.7c44.9,0,53.7,5,53.7,5a20.514,20.514,0,0,0,5.9,4.8c2.891,1.57,8.99,1.706,11.024,1.706.428,0,.676-.006.676-.006h33.4a.825.825,0,0,1,.144-.011,1.058,1.058,0,0,1,.756.311,7.134,7.134,0,0,1,.6,2H633a5.3,5.3,0,0,1,.6-2,.9.9,0,0,1,.733-.311,1.14,1.14,0,0,1,.167.011h33.633c1.36,0,8.317-.081,11.467-1.7a22.515,22.515,0,0,0,5.9-4.8s8.8-5,53.7-5,62.3,5.7,62.3,5.7,4.1,5.3,4.7,8.6c.6,3.2,10.1,16.3,10.1,16.3s21,30,33,65.7c3.9,11.9,7.6,37.2,17,64.9,14.3,42.1,29.1,129.1,32,144.6,4.4,23.2,4.7,90.2,4.7,90.2s-4.5,53.4-36.2,74.9C848.127,693.465,831.779,696.067,821.5,696.067Z" fill="#fff"/>
      </g>
      <g id="g95" opacity="0.06">
        <path id="path93" d="M133.6,373.1c9.4-27.7,13.1-53,17-64.9,12-35.7,33-65.7,33-65.7s9.5-13.1,10.1-16.3c.6-3.3,4.7-8.6,4.7-8.6s17.4-5.7,62.3-5.7c44.8,0,53.7,5,53.7,5a22.515,22.515,0,0,0,5.9,4.8c3.5,1.8,11.7,1.7,11.7,1.7h33.4a1.008,1.008,0,0,1,.9.3,5.3,5.3,0,0,1,.6,2H633.1a7.137,7.137,0,0,1,.6-2,1.061,1.061,0,0,1,.9-.3H668s8.2.2,11.7-1.7a20.515,20.515,0,0,0,5.9-4.8s8.8-5,53.7-5,62.3,5.7,62.3,5.7,4.1,5.3,4.7,8.6,10.1,16.3,10.1,16.3,21,30,33,65.7c4,11.9,7.7,37.2,17,64.9,14.3,42.1,29.1,129.1,32,144.6,3.9,20.9,4.6,77.3,4.7,88.3v-.1s-.3-66.9-4.7-90.1c-2.9-15.5-17.7-102.5-32-144.6-9.4-27.7-13.1-53-17-64.9-12-35.7-33-65.7-33-65.7s-9.5-13.1-10.1-16.3c-.6-3.3-4.7-8.6-4.7-8.6s-17.4-5.7-62.3-5.7-53.7,5-53.7,5a22.514,22.514,0,0,1-5.9,4.8c-3.5,1.8-11.7,1.7-11.7,1.7H634.6a1.008,1.008,0,0,0-.9.3,5.3,5.3,0,0,0-.6,2H366.9a7.134,7.134,0,0,0-.6-2,1.061,1.061,0,0,0-.9-.3H332s-8.2.2-11.7-1.7a20.514,20.514,0,0,1-5.9-4.8s-8.8-5-53.7-5c-44.8,0-62.3,5.7-62.3,5.7s-4.1,5.3-4.7,8.6-10.1,16.3-10.1,16.3-21,30-33,65.7c-4,11.9-7.7,37.2-17,64.9-14.3,42.1-29.1,129.1-32,144.6-4.3,23.1-4.6,90.1-4.6,90.1v.1c.1-10.9.7-67.4,4.7-88.3C104.6,502.3,119.3,415.2,133.6,373.1Z" fill="#fff"/>
      </g>
      <path id="path97" d="M448.2,457.1a76.5,76.5,0,0,0-153,0,13.4,13.4,0,0,0,.1,2c0,.7-.1,1.3-.1,2a76.5,76.5,0,0,0,153,0,13.4,13.4,0,0,0-.1-2C448.1,458.4,448.2,457.7,448.2,457.1Z" fill="#242629"/>
      <path id="circle99" d="M0,73Z" transform="translate(298.7 380.1)" fill="#0f1015"/>
      <path id="circle101" d="M51.5,0A51.5,51.5,0,1,1,0,51.5,51.5,51.5,0,0,1,51.5,0Z" transform="translate(320.2 401.6)" opacity="0.25"/>
      <path id="path103" d="M704.8,457.1a76.5,76.5,0,0,0-153,0,13.4,13.4,0,0,0,.1,2c0,.7-.1,1.3-.1,2a76.5,76.5,0,0,0,153,0,13.4,13.4,0,0,0-.1-2A14.093,14.093,0,0,0,704.8,457.1Z" fill="#242629"/>
      <path id="circle107" d="M51.5,0A51.5,51.5,0,1,1,0,51.5,51.5,51.5,0,0,1,51.5,0Z" transform="translate(576.8 401.6)" opacity="0.25"/>
      <path id="path109" d="M631.8,225.1a6.568,6.568,0,0,0-6.5-5.6H374.7a6.481,6.481,0,0,0-6.5,5.6,14.77,14.77,0,0,0-.1,2.1V354.6a16.09,16.09,0,0,0,16.1,16.1H615.8a16.089,16.089,0,0,0,16.1-16.1V227.2A7.411,7.411,0,0,0,631.8,225.1Z" fill="#121212"/>
      <circle id="circle111" cx="94.3" cy="94.3" r="94.3" transform="translate(655 247.6)" fill="#242629" opacity="0.75"/>
      <g id="g123" opacity="0.75">
        <circle id="circle113" cx="94.3" cy="94.3" r="94.3" transform="translate(156.4 247.6)" fill="#242629"/>
        <path id="path115" d="M327.4,351.2l9.5-8.9a1.151,1.151,0,0,0,0-1.7l-9.5-8.9a1.115,1.115,0,0,0-1.9.8v17.8a1.147,1.147,0,0,0,1.9.9Z" fill="#242629"/>
        <path id="path117" d="M242,266.9h17.8a1.115,1.115,0,0,0,.8-1.9l-8.9-9.5a1.151,1.151,0,0,0-1.7,0l-8.9,9.5a1.171,1.171,0,0,0,.9,1.9Z" fill="#242629"/>
        <path id="path119" d="M174.5,331.7l-9.5,8.9a1.151,1.151,0,0,0,0,1.7l9.5,8.9a1.115,1.115,0,0,0,1.9-.8V332.6a1.125,1.125,0,0,0-1.9-.9Z" fill="#242629"/>
        <path id="path121" d="M259.8,415.9H242a1.115,1.115,0,0,0-.8,1.9l8.9,9.5a1.151,1.151,0,0,0,1.7,0l8.9-9.5a1.171,1.171,0,0,0-.9-1.9Z" fill="#242629"/>
      </g>
    </g>
    <g id="g191">
      <g id="g155">
        <g id="g153">
          <path id="path149" d="M337.5,240.6A12.5,12.5,0,0,1,350,253.1v18.3a12.5,12.5,0,0,1-25,0V253.1a12.5,12.5,0,0,1,12.5-12.5m0-1.7a14.255,14.255,0,0,0-14.2,14.2v18.3a14.2,14.2,0,1,0,28.4,0V253.1a14.19,14.19,0,0,0-14.2-14.2Z" fill="#242629"/>
          <path id="path151" d="M337.5,240.6A12.5,12.5,0,0,0,325,253.1v18.3a12.5,12.5,0,0,0,25,0V253.1a12.5,12.5,0,0,0-12.5-12.5Z" fill="#242629"/>
        </g>
      </g>
      <g id="g163">
        <g id="g161">
          <path id="path157" d="M662.5,240.6A12.5,12.5,0,0,1,675,253.1v18.3a12.5,12.5,0,0,1-12.5,12.5h0A12.5,12.5,0,0,1,650,271.4V253.1a12.5,12.5,0,0,1,12.5-12.5h0m0-1.7a14.255,14.255,0,0,0-14.2,14.2v18.3a14.2,14.2,0,0,0,28.4,0V253.1a14.19,14.19,0,0,0-14.2-14.2Z" fill="#242629"/>
          <path id="path159" d="M662.5,240.6A12.5,12.5,0,0,0,650,253.1v18.3a12.5,12.5,0,0,0,25,0V253.1a12.5,12.5,0,0,0-12.5-12.5Z" fill="#242629"/>
        </g>
      </g>
    </g>
    <g id="g221">
      <g id="g207">
        <circle id="circle193" cx="4.1" cy="4.1" r="4.1" transform="translate(495.9 409.4)" fill="#fff"/>
        <circle id="circle195" cx="4.1" cy="4.1" r="4.1" transform="translate(495.9 388.5)" fill="#fff"/>
        <circle id="circle197" cx="4.1" cy="4.1" r="4.1" transform="translate(489 398.7)" fill="#fff"/>
        <circle id="circle199" cx="4.1" cy="4.1" r="4.1" transform="translate(474.3 398.7)" fill="#fff"/>
        <circle id="circle201" cx="4.1" cy="4.1" r="4.1" transform="translate(481.6 409.4)" fill="#fff"/>
        <circle id="circle203" cx="4.1" cy="4.1" r="4.1" transform="translate(481.6 388.5)" fill="#fff"/>
        <circle id="circle205" cx="4.1" cy="4.1" r="4.1" transform="translate(467.3 388.5)" fill="#fff"/>
      </g>
      <g id="g219">
        <circle id="circle209" cx="4.1" cy="4.1" r="4.1" transform="translate(502.8 398.7)" fill="#fff"/>
        <circle id="circle211" cx="4.1" cy="4.1" r="4.1" transform="translate(517.5 398.7)" fill="#fff"/>
        <circle id="circle213" cx="4.1" cy="4.1" r="4.1" transform="translate(510.1 409.4)" fill="#fff"/>
        <circle id="circle215" cx="4.1" cy="4.1" r="4.1" transform="translate(510.1 388.5)" fill="#fff"/>
        <circle id="circle217" cx="4.1" cy="4.1" r="4.1" transform="translate(524.5 388.5)" fill="#fff"/>
      </g>
    </g>
    <g id="g247" opacity="0.12">
      <path id="path223" d="M500,416.6a4.193,4.193,0,0,1-4.1-3.6c0,.2-.1.3-.1.5a4.1,4.1,0,0,0,8.2,0,.9.9,0,0,0-.1-.5,3.852,3.852,0,0,1-3.9,3.6Z" fill="#fff"/>
      <path id="path225" d="M500,396.7a4.055,4.055,0,0,0,4.1-4.1.9.9,0,0,0-.1-.5,4.116,4.116,0,0,1-4.1,3.6,4.193,4.193,0,0,1-4.1-3.6c0,.2-.1.3-.1.5a4.439,4.439,0,0,0,4.3,4.1Z" fill="#fff"/>
      <path id="path227" d="M497.2,402.8a.9.9,0,0,0-.1-.5,4.116,4.116,0,0,1-4.1,3.6,4.193,4.193,0,0,1-4.1-3.6c0,.2-.1.3-.1.5a4.055,4.055,0,0,0,4.1,4.1,4.165,4.165,0,0,0,4.3-4.1Z" fill="#fff"/>
      <path id="path229" d="M482.4,402.3a4.116,4.116,0,0,1-4.1,3.6,4.193,4.193,0,0,1-4.1-3.6c0,.2-.1.3-.1.5a4.1,4.1,0,1,0,8.2,0C482.5,402.6,482.5,402.5,482.4,402.3Z" fill="#fff"/>
      <path id="path231" d="M485.8,416.6a4.193,4.193,0,0,1-4.1-3.6c0,.2-.1.3-.1.5a4.1,4.1,0,1,0,8.2,0,.9.9,0,0,0-.1-.5A3.852,3.852,0,0,1,485.8,416.6Z" fill="#fff"/>
      <path id="path233" d="M485.8,396.7a4.055,4.055,0,0,0,4.1-4.1.9.9,0,0,0-.1-.5,4.116,4.116,0,0,1-4.1,3.6,4.193,4.193,0,0,1-4.1-3.6c0,.2-.1.3-.1.5a4.366,4.366,0,0,0,4.3,4.1Z" fill="#fff"/>
      <path id="path235" d="M475.6,392.6a.9.9,0,0,0-.1-.5,4.116,4.116,0,0,1-4.1,3.6,4.193,4.193,0,0,1-4.1-3.6c0,.2-.1.3-.1.5a4.055,4.055,0,0,0,4.1,4.1,4.229,4.229,0,0,0,4.3-4.1Z" fill="#fff"/>
      <path id="path237" d="M511,402.3a4.116,4.116,0,0,1-4.1,3.6,4.193,4.193,0,0,1-4.1-3.6c0,.2-.1.3-.1.5a4.1,4.1,0,1,0,8.2,0C511.1,402.6,511,402.5,511,402.3Z" fill="#fff"/>
      <path id="path239" d="M521.6,405.9a4.193,4.193,0,0,1-4.1-3.6c0,.2-.1.3-.1.5a4.1,4.1,0,1,0,8.2,0,.9.9,0,0,0-.1-.5,3.72,3.72,0,0,1-3.9,3.6Z" fill="#fff"/>
      <path id="path241" d="M514.3,416.6a4.193,4.193,0,0,1-4.1-3.6c0,.2-.1.3-.1.5a4.1,4.1,0,0,0,8.2,0,.9.9,0,0,0-.1-.5A3.852,3.852,0,0,1,514.3,416.6Z" fill="#fff"/>
      <path id="path243" d="M514.3,396.7a4.055,4.055,0,0,0,4.1-4.1.9.9,0,0,0-.1-.5,4.116,4.116,0,0,1-4.1,3.6,4.193,4.193,0,0,1-4.1-3.6c0,.2-.1.3-.1.5A4.366,4.366,0,0,0,514.3,396.7Z" fill="#fff"/>
      <path id="path245" d="M528.6,395.7a4.193,4.193,0,0,1-4.1-3.6c0,.2-.1.3-.1.5a4.1,4.1,0,1,0,8.2,0,.9.9,0,0,0-.1-.5A3.852,3.852,0,0,1,528.6,395.7Z" fill="#fff"/>
    </g>
    <path id="path249" d="M533.6,518.1H465.7c-2.8,0-4.6.6-4.6-2.2h0a5.015,5.015,0,0,1,5-5H534a5.015,5.015,0,0,1,5,5h0C539.1,518.6,536.4,518.1,533.6,518.1Z" fill="#fff"/>
    <path id="path251" d="M505.3,515.9H468.8a.9.9,0,0,1-.9-.9h0a2.006,2.006,0,0,1,2-2h34.2a2.006,2.006,0,0,1,2,2h0a.765.765,0,0,1-.8.9Z" fill="#fff"/>
    <path id="path253" d="M527.5,516.7h-4.2a1.752,1.752,0,0,1-1.7-1.7h0a2.8,2.8,0,0,1,2.8-2.8h1.9a2.8,2.8,0,0,1,2.8,2.8h0a1.5,1.5,0,0,1-1.6,1.7Z" fill="#fff"/>
    <g id="g264">
      <g id="g262">
        <path id="path255" d="M627.4,221.4a1.9,1.9,0,0,0-1.9-1.9H374.4a1.9,1.9,0,0,0-1.9,1.9V350.6a15.62,15.62,0,0,0,15.6,15.6H611.9a15.62,15.62,0,0,0,15.6-15.6V227.5Z" fill="#242629"/>
        <g id="g260" opacity="0.12">
          <path id="path258" d="M372.5,350.6a15.62,15.62,0,0,0,15.6,15.6H611.9a15.62,15.62,0,0,0,15.6-15.6V244.1h-255Z" fill="#242629"/>
        </g>
      </g>
    </g>
    <g id="g320">
      <circle id="circle310" cx="20.2" cy="20.2" r="20.2" transform="translate(479.8 438.9)" fill="#050505" stroke="#000" stroke-miterlimit="10" stroke-width="2"/>
      <g id="g318">
        <path id="path312" d="M501.1,465.7V452.9a1.327,1.327,0,0,1,.3-1,.574.574,0,0,1,.7-.2c.6.2.9.7.9,1.7v6.9a4.553,4.553,0,0,0,2.1.5,2.767,2.767,0,0,0,1.6-.5c1-.7,1.5-1.9,1.5-3.7a6.492,6.492,0,0,0-1.2-4.3,8.79,8.79,0,0,0-4.1-2.6c-1.3-.4-2.5-.8-3.6-1.1s-2-.5-2.9-.7v12.2h0v2.7h0v1.7h0V467h0v1.5l4.7,1.5v-3.6h0Z" fill="#f2f2f2"/>
        <path id="path314" d="M496,464.7l-1.7.6-.9.4-1.6.3-1.5-.2c-.3-.2-.4-.4-.2-.6.1-.1.2-.1.3-.2s.3-.1.4-.2l1.1-.4,4.1-1.5v-2.7l-1.7.5-5.5,2-1,.4c-1.5.6-2.2,1.2-2.2,1.8.1.8,1,1.5,2.7,1.9a15.21,15.21,0,0,0,4.3.5,20.206,20.206,0,0,0,3.3-.3v-2.3h.1Z" fill="#f2f2f2"/>
        <path id="path316" d="M511.8,462.4a12.885,12.885,0,0,0-2.5-.6,10.477,10.477,0,0,0-2.5-.1,26.591,26.591,0,0,0-2.8.3,15.259,15.259,0,0,0-2.6.8v2.8l3.9-1.4,1.6-.5,1.1-.3h1.4c.3.1.6.2.7.4,0,.2-.2.4-.8.6l-1.4.5-6.5,2.4V470l3.5-1.3,6.4-2.3.7-.4c1.5-.5,2.2-1.2,2.2-1.9C514.2,463.5,513.4,462.9,511.8,462.4Z" fill="#f2f2f2"/>
      </g>
    </g>
    <g id="g338">
      <g id="g328">
        <g id="g326">
          <path id="path322" d="M794.2,207a2.144,2.144,0,0,0-1.1-1.9c-4.5-2.9-23.4-13.6-51.5-13.6-26.9,0-41.1,5.9-45.1,8a2.2,2.2,0,0,0-1.2,2s9.8-2.9,47.5-2.9S794.2,207,794.2,207Z" fill="#0a0a0a"/>
          <path id="path324" d="M794.1,213.9h0V207s-13.7-8.4-51.4-8.4c-37.8,0-47.5,2.9-47.5,2.9v11h0c7.7-1.3,21.2-2.6,44.1-2.6C767.8,210,785.2,212.3,794.1,213.9Z" fill="#121212"/>
        </g>
      </g>
      <g id="g336">
        <g id="g334">
          <path id="path330" d="M205.8,207a2.144,2.144,0,0,1,1.1-1.9c4.5-2.9,23.4-13.6,51.5-13.6,26.9,0,41.1,5.9,45.1,8a2.2,2.2,0,0,1,1.2,2s-9.8-2.9-47.5-2.9S205.8,207,205.8,207Z" fill="#0a0a0a"/>
          <path id="path332" d="M205.9,213.9h0V207s13.7-8.4,51.4-8.4c37.8,0,47.5,2.9,47.5,2.9v11h0c-7.7-1.3-21.2-2.6-44.1-2.6C232.2,210,214.8,212.3,205.9,213.9Z" fill="#121212"/>
        </g>
      </g>
    </g>
    <g id="g376">
      <g id="g356">
        <g id="g354">
          <g id="g344">
            <path id="path340" d="M794.2,187.9s-32.7-3.2-50.6-3.2-48.4,2.4-48.4,2.4,3.1-44.7,4.8-52c1.6-7.3,7.7-21.3,16.9-27.9s11.9-10.1,22.7-10.1,25.4,6.4,34.6,21.4C783.5,133.5,794.2,187.9,794.2,187.9Z" fill="#121212"/>
            <path id="path342" d="M695.7,180.3s26.1-4.4,49-4.4c22.8,0,47.9,4.4,47.9,4.4,1,4.7,1.6,7.6,1.6,7.6s-32.7-3.2-50.6-3.2-48.4,2.4-48.4,2.4S695.4,184.4,695.7,180.3Z" fill="#0a0a0a"/>
          </g>
          <g id="g352" opacity="0.08">
            <g id="g348">
              <path id="path346" d="M745.7,162.8c-2.1,1.7-3.2,2.6-3.2,2.6a6.7,6.7,0,0,0-2,4.5h9.8v-2.6H744a6.7,6.7,0,0,1,2.1-1.9,12.466,12.466,0,0,0,2.7-2.1,4.771,4.771,0,0,0,1.3-3.3,4.223,4.223,0,0,0-1.4-3.3,5.13,5.13,0,0,0-3.5-1.2c-3.1,0-4.7,1.7-4.7,5h2.7q0-2.7,2.1-2.7a1.827,1.827,0,0,1,2,2.1C747.5,161,746.9,161.9,745.7,162.8Z" fill="#fff"/>
            </g>
            <path id="path350" d="M728.1,164.3h3c1.5,0,2.3.6,2.4,1.9.1,1.2.2,2.5.3,3.8h3.3v-.4c-.5-.2-.7-.7-.7-1.5a2.817,2.817,0,0,1,.1-.8v-.7a3.564,3.564,0,0,0-1.8-3.5,3.25,3.25,0,0,0,2.2-3.4,3.542,3.542,0,0,0-1.3-3,4.722,4.722,0,0,0-3.2-1h-7.3V170h3Zm0-6.2h3.7c1.4,0,2.1.6,2.1,1.9s-.8,1.9-2.3,1.9h-3.5Z" fill="#fff"/>
          </g>
        </g>
      </g>
      <g id="g374">
        <g id="g372">
          <g id="g362">
            <path id="path358" d="M205.8,187.9s32.7-3.2,50.6-3.2,48.3,2.4,48.3,2.4-3.1-44.7-4.8-52c-1.6-7.3-7.7-21.3-16.9-27.9-9.1-6.7-11.8-10.1-22.6-10.1s-25.4,6.4-34.6,21.4S205.8,187.9,205.8,187.9Z" fill="#121212"/>
            <path id="path360" d="M304.3,180.3s-26.1-4.4-49-4.4c-22.8,0-47.9,4.4-47.9,4.4-1,4.7-1.6,7.6-1.6,7.6s32.7-3.2,50.6-3.2,48.3,2.4,48.3,2.4S304.6,184.4,304.3,180.3Z" fill="#0a0a0a"/>
          </g>
          <g id="g370" opacity="0.08">
            <g id="g366">
              <path id="path364" d="M270.3,162.8c-2.1,1.7-3.2,2.6-3.2,2.6a6.705,6.705,0,0,0-2,4.5h9.8v-2.6h-6.2a6.7,6.7,0,0,1,2.1-1.9,12.469,12.469,0,0,0,2.7-2.1,4.771,4.771,0,0,0,1.3-3.3,4.223,4.223,0,0,0-1.4-3.3,5.13,5.13,0,0,0-3.5-1.2c-3.1,0-4.7,1.7-4.7,5h2.7q0-2.7,2.1-2.7a1.827,1.827,0,0,1,2,2.1C272.1,161,271.5,161.9,270.3,162.8Z" fill="#fff"/>
            </g>
            <path id="polygon368" d="M261.8,167.3h-7V155.6h-3.1v14.3h10.1Z" fill="#fff"/>
          </g>
        </g>
      </g>
    </g>
  </g>
</svg>
