<svg xmlns="http://www.w3.org/2000/svg" width="98.9" height="22.4" viewBox="0 0 98.9 22.4">
  <g id="bumper" transform="translate(256 -385.6)">
    <path id="path2" d="M-256,401.1a2.144,2.144,0,0,1,1.1-1.9c4.5-2.9,23.3-13.6,51.5-13.6,26.9,0,41.1,5.9,45.1,8a2.2,2.2,0,0,1,1.2,2s-9.8-2.9-47.5-2.9S-256,401.1-256,401.1Z" fill="#f5f5f5"/>
    <path id="path4" d="M-256,408h0v-6.9s13.7-8.4,51.4-8.4c37.8,0,47.5,2.9,47.5,2.9v11h0c-7.7-1.3-21.2-2.6-44.1-2.6C-229.7,404-247.1,406.3-256,408Z" fill="#ededed"/>
  </g>
</svg>
