<svg xmlns="http://www.w3.org/2000/svg" width="178.527" height="103.928" viewBox="0 0 178.527 103.928">
  <g id="dpad" transform="translate(432.018 -743.282)">
    <g id="g26">
      <g id="g6">
        <path id="path2" d="M-307.5,763.9c1.4-2,1.2-2.9,1.2-2.9s.2-.9-1.2-2.9-15-13.6-15.7-14-28.5-2.2-31.4,1.3-2.6,15.6-2.6,15.6-.3,12.1,2.6,15.6,30.7,1.7,31.4,1.3S-308.9,765.9-307.5,763.9Z" fill="#1a1a1a"/>
        <path id="path4" d="M-307.5,763.9c1.4-2,1.2-2.9,1.2-2.9s.2-.9-1.2-2.9c-.9-1.3-6.9-6.6-11.2-10.3a27.841,27.841,0,0,0-3.4,13.2,26.733,26.733,0,0,0,3.4,13.2C-314.4,770.5-308.4,765.2-307.5,763.9Z" opacity="0.25"/>
      </g>
      <g id="g12">
        <path id="path8" d="M-379.8,793c2,1.4,2.9,1.2,2.9,1.2s.9.2,2.9-1.2,13.6-15,14-15.7,2.2-28.5-1.3-31.4-15.6-2.6-15.6-2.6-12.1-.2-15.6,2.6-1.7,30.7-1.3,31.4S-381.8,791.6-379.8,793Z" fill="#1a1a1a"/>
        <path id="path10" d="M-379.8,793c2,1.4,2.9,1.2,2.9,1.2s.9.2,2.9-1.2c1.3-.9,6.6-6.9,10.3-11.2a27.841,27.841,0,0,0-13.2-3.4,26.733,26.733,0,0,0-13.2,3.4C-386.4,786.1-381.1,792.1-379.8,793Z" opacity="0.25"/>
      </g>
      <g id="g18">
        <path id="path14" d="M-256.1,745.5c-2.9-3.5-30.7-1.7-31.4-1.3s-14.3,12-15.7,14-1.2,2.9-1.2,2.9-.2.9,1.2,2.9,15,13.6,15.7,14,28.5,2.2,31.4-1.3,2.6-15.6,2.6-15.6S-253.2,749-256.1,745.5Z" fill="#1a1a1a"/>
        <path id="path16" d="M-291.9,747.9c-4.3,3.7-10.3,9-11.2,10.3-1.4,2-1.2,2.9-1.2,2.9s-.2.9,1.2,2.9c.9,1.3,6.9,6.6,11.2,10.3a27.841,27.841,0,0,0,3.4-13.2A27.84,27.84,0,0,0-291.9,747.9Z" opacity="0.25"/>
      </g>
      <g id="g24">
        <path id="path20" d="M-411.4,744.5c-2-1.4-2.9-1.2-2.9-1.2s-.9-.2-2.9,1.2-13.6,15-14,15.7-2.2,28.5,1.3,31.4,15.6,2.6,15.6,2.6,12.1.3,15.6-2.6,1.7-30.7,1.3-31.4S-409.4,745.9-411.4,744.5Z" fill="#1a1a1a"/>
        <path id="path22" d="M-411.4,744.5c-2-1.4-2.9-1.2-2.9-1.2s-.9-.2-2.9,1.2c-1.3.9-6.6,6.9-10.3,11.2a27.841,27.841,0,0,0,13.2,3.4,26.733,26.733,0,0,0,13.2-3.4C-404.8,751.4-410.1,745.4-411.4,744.5Z" opacity="0.25"/>
      </g>
    </g>
    <g id="g52">
      <g id="g32">
        <path id="path28" d="M-307.5,816.9c1.4-2,1.2-2.9,1.2-2.9s.2-.9-1.2-2.9-15-13.6-15.7-14-28.5-2.2-31.4,1.3-2.6,15.6-2.6,15.6-.3,12.1,2.6,15.6,30.7,1.7,31.4,1.3S-308.9,818.9-307.5,816.9Z" fill="#e6e6e6"/>
        <path id="path30" d="M-307.5,816.9c1.4-2,1.2-2.9,1.2-2.9s.2-.9-1.2-2.9c-.9-1.3-6.9-6.6-11.2-10.3a27.841,27.841,0,0,0-3.4,13.2,26.733,26.733,0,0,0,3.4,13.2C-314.4,823.5-308.4,818.2-307.5,816.9Z" fill="#fff" opacity="0.25"/>
      </g>
      <g id="g38">
        <path id="path34" d="M-379.8,846c2,1.4,2.9,1.2,2.9,1.2s.9.2,2.9-1.2,13.6-15,14-15.7,2.2-28.5-1.3-31.4-15.6-2.6-15.6-2.6-12.1-.2-15.6,2.6-1.7,30.7-1.3,31.4S-381.8,844.6-379.8,846Z" fill="#e6e6e6"/>
        <path id="path36" d="M-379.8,846c2,1.4,2.9,1.2,2.9,1.2s.9.2,2.9-1.2c1.3-.9,6.6-6.9,10.3-11.2a27.841,27.841,0,0,0-13.2-3.4,26.733,26.733,0,0,0-13.2,3.4C-386.4,839.1-381.1,845.1-379.8,846Z" fill="#fff" opacity="0.25"/>
      </g>
      <g id="g44">
        <path id="path40" d="M-256.1,798.4c-2.9-3.5-30.7-1.7-31.4-1.3s-14.3,12-15.7,14-1.2,2.9-1.2,2.9-.2.9,1.2,2.9,15,13.6,15.7,14,28.5,2.2,31.4-1.3,2.6-15.6,2.6-15.6S-253.2,801.9-256.1,798.4Z" fill="#e6e6e6"/>
        <path id="path42" d="M-291.9,800.9c-4.3,3.7-10.3,9-11.2,10.3-1.4,2-1.2,2.9-1.2,2.9s-.2.9,1.2,2.9c.9,1.3,6.9,6.6,11.2,10.3a27.841,27.841,0,0,0,3.4-13.2A27.84,27.84,0,0,0-291.9,800.9Z" fill="#fff" opacity="0.25"/>
      </g>
      <g id="g50">
        <path id="path46" d="M-411.4,797.5c-2-1.4-2.9-1.2-2.9-1.2s-.9-.2-2.9,1.2-13.6,15-14,15.7-2.2,28.5,1.3,31.4,15.6,2.6,15.6,2.6,12.1.3,15.6-2.6,1.7-30.7,1.3-31.4S-409.4,798.9-411.4,797.5Z" fill="#e6e6e6"/>
        <path id="path48" d="M-411.4,797.5c-2-1.4-2.9-1.2-2.9-1.2s-.9-.2-2.9,1.2c-1.3.9-6.6,6.9-10.3,11.2a27.841,27.841,0,0,0,13.2,3.4,26.733,26.733,0,0,0,13.2-3.4C-404.8,804.4-410.1,798.4-411.4,797.5Z" fill="#fff" opacity="0.25"/>
      </g>
    </g>
  </g>
</svg>
