<svg xmlns="http://www.w3.org/2000/svg" width="28.4" height="46.7" viewBox="0 0 28.4 46.7">
  <g id="g6" transform="translate(291 -373.3)">
    <path id="path2" d="M-276.8,375a12.5,12.5,0,0,1,12.5,12.5v18.3a12.5,12.5,0,0,1-12.5,12.5,12.5,12.5,0,0,1-12.5-12.5V387.5A12.5,12.5,0,0,1-276.8,375m0-1.7A14.255,14.255,0,0,0-291,387.5v18.3A14.255,14.255,0,0,0-276.8,420a14.255,14.255,0,0,0,14.2-14.2V387.5a14.255,14.255,0,0,0-14.2-14.2Z" fill="#fff"/>
    <path id="path4" d="M-276.8,375a12.5,12.5,0,0,0-12.5,12.5v18.3a12.5,12.5,0,0,0,12.5,12.5,12.5,12.5,0,0,0,12.5-12.5V387.5A12.5,12.5,0,0,0-276.8,375Z" fill="#efeee5"/>
  </g>
</svg>
