<svg xmlns="http://www.w3.org/2000/svg" width="200" height="90.8" viewBox="0 0 200 90.8">
  <g id="triggers" transform="translate(205.1 -351.2)">
    <g id="g16">
      <g id="g6">
        <path id="path2" d="M-5.1,442s-32.7-3.2-50.6-3.2-48.4,2.4-48.4,2.4,3.1-44.7,4.8-52,7.7-21.3,16.9-27.9,12-10.1,22.8-10.1,25.4,6.4,34.6,21.4S-5.1,442-5.1,442Z" fill="#ededed"/>
        <path id="path4" d="M-103.6,434.4s26.1-4.4,49-4.4c22.8,0,47.9,4.4,47.9,4.4,1,4.7,1.6,7.6,1.6,7.6s-32.7-3.2-50.6-3.2-48.4,2.4-48.4,2.4S-103.9,438.5-103.6,434.4Z" fill="#f5f5f5"/>
      </g>
      <g id="g14" opacity="0.08">
        <g id="g10">
          <path id="path8" d="M-53.6,416.9c-2.1,1.7-3.2,2.6-3.2,2.6a6.705,6.705,0,0,0-2,4.5H-49v-2.6h-6.2a6.705,6.705,0,0,1,2.1-1.9,12.467,12.467,0,0,0,2.7-2.1,4.771,4.771,0,0,0,1.3-3.3,4.223,4.223,0,0,0-1.4-3.3,5.13,5.13,0,0,0-3.5-1.2c-3.1,0-4.7,1.7-4.7,5H-56q0-2.7,2.1-2.7a1.827,1.827,0,0,1,2,2.1C-51.8,415.1-52.4,416-53.6,416.9Z"/>
        </g>
        <path id="path12" d="M-71.1,418.4h3c1.5,0,2.3.6,2.4,1.9.1,1.2.2,2.5.3,3.8h3.3v-.4c-.5-.2-.7-.7-.7-1.5a2.814,2.814,0,0,1,.1-.8v-.7a3.564,3.564,0,0,0-1.8-3.5,3.25,3.25,0,0,0,2.2-3.4,3.542,3.542,0,0,0-1.3-3,4.722,4.722,0,0,0-3.2-1h-7.3v14.3h3Zm0-6.2h3.7c1.4,0,2.1.6,2.1,1.9s-.8,1.9-2.3,1.9h-3.5v-3.8Z"/>
      </g>
    </g>
    <g id="g32">
      <g id="g22">
        <path id="path18" d="M-205,442s32.7-3.2,50.6-3.2,48.3,2.4,48.3,2.4-3.1-44.7-4.8-52-7.7-21.3-16.9-27.9-11.9-10.1-22.7-10.1-25.4,6.4-34.6,21.4S-205,442-205,442Z" fill="#ededed"/>
        <path id="path20" d="M-106.6,434.4s-26.1-4.4-49-4.4c-22.8,0-47.9,4.4-47.9,4.4-1,4.7-1.6,7.6-1.6,7.6s32.7-3.2,50.6-3.2,48.4,2.4,48.4,2.4S-106.2,438.5-106.6,434.4Z" fill="#f5f5f5"/>
      </g>
      <g id="g30" opacity="0.08">
        <g id="g26">
          <path id="path24" d="M-140.5,416.9c-2.1,1.7-3.2,2.6-3.2,2.6a6.705,6.705,0,0,0-2,4.5h9.7v-2.6h-6.2a6.705,6.705,0,0,1,2.1-1.9,12.467,12.467,0,0,0,2.7-2.1,4.771,4.771,0,0,0,1.3-3.3,4.223,4.223,0,0,0-1.4-3.3,5.13,5.13,0,0,0-3.5-1.2c-3.1,0-4.7,1.7-4.7,5h2.7q0-2.7,2.1-2.7a1.827,1.827,0,0,1,2,2.1A3.166,3.166,0,0,1-140.5,416.9Z"/>
        </g>
        <path id="polygon28" d="M-149,421.4h-7.1V409.7h-3V424H-149Z"/>
      </g>
    </g>
  </g>
</svg>
