<svg id="abxy" xmlns="http://www.w3.org/2000/svg" width="195.574" height="96.744" viewBox="0 0 195.574 96.744">
  <g id="g38">
    <g id="g9">
      <g id="A_1_">
        <path id="path2" d="M23.688,0A23.682,23.682,0,1,1,0,23.682,23.69,23.69,0,0,1,23.688,0Z"/>
      </g>
      <g id="g7">
        <path id="path5" d="M32.448,38.835,29.67,31.172H17.542L14.9,38.835H9.416L20.883,8.526h5.583L37.978,38.835Zm-8.79-25.756h-.129a10.672,10.672,0,0,1-.45,2.174L18.942,26.932h9.293L24.072,15.253A11.406,11.406,0,0,1,23.658,13.079Z" fill="#fff"/>
      </g>
    </g>
    <g id="g18">
      <g id="B_1_">
        <path id="path11" d="M73.084,0a23.685,23.685,0,1,1-23.69,23.686A23.694,23.694,0,0,1,73.084,0Z"/>
      </g>
      <g id="g16">
        <path id="path14" d="M83.288,30.01A7.913,7.913,0,0,1,80.363,36.4,11.39,11.39,0,0,1,72.8,38.832H62.889V8.53h9.572a11.333,11.333,0,0,1,6.867,1.884A6.029,6.029,0,0,1,81.851,15.5a6.79,6.79,0,0,1-1.5,4.348,7.955,7.955,0,0,1-3.956,2.67v.091a8.113,8.113,0,0,1,5.069,2.372A7.2,7.2,0,0,1,83.288,30.01ZM76.519,16.471a3.29,3.29,0,0,0-1.332-2.8,6.783,6.783,0,0,0-3.979-.973H67.931v8.383h3.232a5.912,5.912,0,0,0,3.955-1.2A4.251,4.251,0,0,0,76.519,16.471Zm1.434,13.4A4.08,4.08,0,0,0,76.4,26.464a7.522,7.522,0,0,0-4.674-1.206h-3.79v9.413H72.17a6.342,6.342,0,0,0,4.237-1.308A4.266,4.266,0,0,0,77.953,29.873Z" fill="#fff"/>
      </g>
    </g>
    <g id="g27">
      <g id="Y_1_">
        <path id="path20" d="M171.869,0a23.686,23.686,0,1,1-23.688,23.69A23.7,23.7,0,0,1,171.869,0Z"/>
      </g>
      <g id="g25">
        <path id="path23" d="M174.266,27.847V38.834h-5V27.97L159.422,8.534h5.721l6.1,12.646a6.051,6.051,0,0,1,.438,1.121c.1.336.176.61.256.825h.045a8.3,8.3,0,0,1,.7-1.9L179,8.534h5.319Z" fill="#fff"/>
      </g>
    </g>
    <g id="g36">
      <g id="X_1_">
        <path id="path29" d="M122.47,0A23.685,23.685,0,1,1,98.787,23.687,23.7,23.7,0,0,1,122.47,0Z"/>
      </g>
      <g id="g34">
        <path id="path32" d="M129.59,38.831l-6.406-11.019a5.792,5.792,0,0,1-.309-.763,5.278,5.278,0,0,0-.212-.763h-.092a7.621,7.621,0,0,0-.267.775,5.782,5.782,0,0,1-.336.75L115.445,38.83h-6.123l10.137-15.189L110.2,8.53h6.186l5.4,9.954a10.687,10.687,0,0,1,1.048,2.266h.073c.305-.793.537-1.311.657-1.56s2.209-3.8,6.27-10.66h5.674L126.05,23.55l9.581,15.281Z" fill="#fff"/>
      </g>
    </g>
  </g>
  <g id="g76">
    <g id="g47">
      <g id="A_2_">
        <path id="path40" d="M23.688,49.376A23.682,23.682,0,1,1,0,73.058,23.69,23.69,0,0,1,23.688,49.376Z" fill="#fff"/>
      </g>
      <g id="g45">
        <path id="path43" d="M32.448,88.211,29.67,80.548H17.542L14.9,88.211H9.416L20.883,57.9h5.583L37.978,88.211Zm-8.79-25.756h-.129a10.672,10.672,0,0,1-.45,2.174L18.942,76.308h9.293L24.072,64.629A11.406,11.406,0,0,1,23.658,62.455Z"/>
      </g>
    </g>
    <g id="g56">
      <g id="B_2_">
        <path id="path49" d="M73.084,49.374A23.684,23.684,0,1,1,49.394,73.06,23.694,23.694,0,0,1,73.084,49.374Z" fill="#fff"/>
      </g>
      <g id="g54">
        <path id="path52" d="M83.288,79.383a7.913,7.913,0,0,1-2.925,6.385A11.39,11.39,0,0,1,72.8,88.205H62.889V57.9h9.572a11.333,11.333,0,0,1,6.867,1.884,6.029,6.029,0,0,1,2.523,5.089,6.79,6.79,0,0,1-1.5,4.348,7.955,7.955,0,0,1-3.956,2.67v.091a8.113,8.113,0,0,1,5.069,2.372A7.193,7.193,0,0,1,83.288,79.383ZM76.519,65.844a3.29,3.29,0,0,0-1.332-2.795,6.783,6.783,0,0,0-3.979-.973H67.931v8.383h3.232a5.912,5.912,0,0,0,3.955-1.2A4.25,4.25,0,0,0,76.519,65.844Zm1.434,13.4A4.08,4.08,0,0,0,76.4,75.838a7.522,7.522,0,0,0-4.674-1.206h-3.79v9.413H72.17a6.342,6.342,0,0,0,4.237-1.308A4.269,4.269,0,0,0,77.953,79.247Z"/>
      </g>
    </g>
    <g id="g65">
      <g id="Y_2_">
        <path id="path58" d="M171.869,49.372a23.686,23.686,0,1,1-23.688,23.69A23.7,23.7,0,0,1,171.869,49.372Z" fill="#fff"/>
      </g>
      <g id="g63">
        <path id="path61" d="M174.266,77.219V88.206h-5V77.342l-9.847-19.436h5.721l6.1,12.646a6.051,6.051,0,0,1,.438,1.121c.1.336.176.61.256.825h.045a8.3,8.3,0,0,1,.7-1.9L179,57.906h5.319Z"/>
      </g>
    </g>
    <g id="g74">
      <g id="X_2_">
        <path id="path67" d="M122.47,49.374A23.685,23.685,0,1,1,98.787,73.061,23.7,23.7,0,0,1,122.47,49.374Z" fill="#fff"/>
      </g>
      <g id="g72">
        <path id="path70" d="M129.59,88.205l-6.406-11.019a5.792,5.792,0,0,1-.309-.763,5.278,5.278,0,0,0-.212-.763h-.092a7.621,7.621,0,0,0-.267.775,5.783,5.783,0,0,1-.336.75L115.445,88.2h-6.123l10.137-15.189L110.2,57.9h6.186l5.4,9.954a10.687,10.687,0,0,1,1.048,2.266h.073c.305-.793.537-1.311.657-1.56s2.209-3.8,6.27-10.66h5.674l-9.459,15.02,9.581,15.281Z"/>
      </g>
    </g>
  </g>
</svg>
