<svg xmlns="http://www.w3.org/2000/svg" width="67.409" height="33.206" viewBox="0 0 67.409 33.206">
  <g id="start-select" transform="translate(0 0)">
    <g id="Menu_Pressed">
      <path id="path2" d="M66.909,16.6A16.1,16.1,0,1,1,50.807.5,16.109,16.109,0,0,1,66.909,16.6Z" fill="#f5f5f5" stroke="#374dcc" stroke-miterlimit="10" stroke-width="1"/>
      <g id="g10">
        <rect id="rect4" width="14.361" height="1.552" transform="translate(43.612 11.978)"/>
        <rect id="rect6" width="14.361" height="1.552" transform="translate(43.612 15.896)"/>
        <rect id="rect8" width="14.361" height="1.532" transform="translate(43.612 19.706)"/>
      </g>
    </g>
    <g id="Switcher_PRessed">
      <path id="path13" d="M32.706,16.6A16.1,16.1,0,1,1,16.6.5,16.091,16.091,0,0,1,32.706,16.6Z" fill="#f5f5f5" stroke="#374dcc" stroke-miterlimit="10" stroke-width="1"/>
      <g id="g19">
        <path id="polygon15" d="M14.087,16.5H11.056V12.718h5.472v1.321h1.8v-3.06H9.437v7.39h4.65Z"/>
        <path id="path17" d="M14.837,14.663v7.584H23.8V14.663ZM22,20.447h-5.47V16.5H22Z"/>
      </g>
    </g>
  </g>
</svg>
