<svg xmlns="http://www.w3.org/2000/svg" width="224" height="112.4" viewBox="0 0 224 112.4">
  <g id="face" transform="translate(193 -340.7)">
    <g id="g42">
      <g id="g10">
        <g id="g6">
          <path id="path2" d="M-109.2,452a26.332,26.332,0,0,1-26.3-26.3,26.247,26.247,0,0,1,26.3-26.2A26.247,26.247,0,0,1-83,425.8,26.225,26.225,0,0,1-109.2,452Z" fill="#fff"/>
          <path id="path4" d="M-109.2,400.5a25.308,25.308,0,0,1,25.3,25.2A25.329,25.329,0,0,1-109.2,451a25.244,25.244,0,0,1-25.3-25.2,25.329,25.329,0,0,1,25.3-25.3m0-2a27.314,27.314,0,0,0-27.3,27.2A27.335,27.335,0,0,0-109.2,453,27.164,27.164,0,0,0-82,425.8a27.314,27.314,0,0,0-27.2-27.3Z" fill="#fff"/>
        </g>
        <path id="path8" d="M-109.2,406.9a18.949,18.949,0,0,0-18.9,18.9,18.949,18.949,0,0,0,18.9,18.9,18.949,18.949,0,0,0,18.9-18.9A18.949,18.949,0,0,0-109.2,406.9Zm0,34.9a15.983,15.983,0,0,1-16-16,15.983,15.983,0,0,1,16-16,16.047,16.047,0,0,1,16,16A16.047,16.047,0,0,1-109.2,441.8Z"/>
      </g>
      <g id="g20">
        <g id="g16">
          <path id="path12" d="M-165.8,452A26.225,26.225,0,0,1-192,425.8a26.247,26.247,0,0,1,26.3-26.2,26.311,26.311,0,0,1,26.3,26.2A26.4,26.4,0,0,1-165.8,452Z" fill="#fff"/>
          <path id="path14" d="M-165.7,400.5a25.308,25.308,0,0,1,25.3,25.2A25.329,25.329,0,0,1-165.7,451,25.244,25.244,0,0,1-191,425.8a25.329,25.329,0,0,1,25.3-25.3m0-2A27.335,27.335,0,0,0-193,425.8a27.335,27.335,0,0,0,27.3,27.3,27.271,27.271,0,0,0,27.3-27.3,27.465,27.465,0,0,0-27.3-27.3Z" fill="#fff"/>
        </g>
        <path id="polygon18" d="M-151.4,413.4l-2-2-12.3,12.4-12.4-12.4-2,2,12.3,12.4-12.3,12.3,2,2.1,12.4-12.4,12.3,12.4,2-2.1-12.3-12.3Z"/>
      </g>
      <g id="g30">
        <g id="g26">
          <path id="path22" d="M-52.7,452a26.247,26.247,0,0,1-26.2-26.3,26.225,26.225,0,0,1,26.2-26.2,26.376,26.376,0,0,1,26.3,26.2A26.462,26.462,0,0,1-52.7,452Z" fill="#fff"/>
          <path id="path24" d="M-52.7,400.5a25.308,25.308,0,0,1,25.3,25.2A25.329,25.329,0,0,1-52.7,451,25.244,25.244,0,0,1-78,425.8a25.329,25.329,0,0,1,25.3-25.3m0-2A27.314,27.314,0,0,0-80,425.7,27.335,27.335,0,0,0-52.7,453a27.271,27.271,0,0,0,27.3-27.3,27.25,27.25,0,0,0-27.3-27.2Z" fill="#fff"/>
        </g>
        <path id="path28" d="M-41.2,411.4H-67V440h28.6V411.4Zm0,25.9h-23v-23h23v23Z"/>
      </g>
      <g id="g40">
        <g id="g36">
          <path id="path32" d="M3.7,452a26.332,26.332,0,0,1-26.3-26.3,26.3,26.3,0,0,1,52.6.1A26.247,26.247,0,0,1,3.7,452Z" fill="#fff"/>
          <path id="path34" d="M3.8,400.5a25.25,25.25,0,1,1,0,50.5,25.244,25.244,0,0,1-25.3-25.2A25.329,25.329,0,0,1,3.8,400.5m0-2A27.25,27.25,0,1,0,31,425.8,27.314,27.314,0,0,0,3.8,398.5Z" fill="#fff"/>
        </g>
        <path id="path38" d="M19.7,433.8l-16-27.6-16,27.6-1.6,2.8H21.3Zm-15.9,0H-8.9L3.8,411.9l12.7,21.9Z"/>
      </g>
    </g>
    <g id="g84">
      <g id="g52">
        <g id="g48">
          <path id="path44" d="M-109.2,394.2a26.332,26.332,0,0,1-26.3-26.3,26.247,26.247,0,0,1,26.3-26.2A26.225,26.225,0,0,1-83,367.9,26.376,26.376,0,0,1-109.2,394.2Z" stroke="#fff" stroke-width="2"/>
        </g>
        <path id="path50" d="M-109.2,349.1A18.949,18.949,0,0,0-128.1,368a18.949,18.949,0,0,0,18.9,18.9A18.949,18.949,0,0,0-90.3,368,18.949,18.949,0,0,0-109.2,349.1Zm0,34.9a15.983,15.983,0,0,1-16-16,15.983,15.983,0,0,1,16-16,16.047,16.047,0,0,1,16,16A16.047,16.047,0,0,1-109.2,384Z" fill="#fff"/>
      </g>
      <g id="g62">
        <g id="g58">
          <path id="path54" d="M-165.8,394.2A26.29,26.29,0,0,1-192,368a26.376,26.376,0,0,1,26.2-26.3A26.4,26.4,0,0,1-139.5,368,26.247,26.247,0,0,1-165.8,394.2Z" stroke="#fff" stroke-width="2"/>
        </g>
        <path id="polygon60" d="M-151.4,355.6l-2-2-12.3,12.3-12.4-12.3-2,2,12.3,12.3-12.3,12.4,2,2,12.4-12.3,12.3,12.3,2-2-12.3-12.4Z" fill="#fff"/>
      </g>
      <g id="g72">
        <g id="g68">
          <path id="path64" d="M-52.7,394.9a26.225,26.225,0,0,1-26.2-26.2,26.376,26.376,0,0,1,26.2-26.3,26.4,26.4,0,0,1,26.3,26.3A26.311,26.311,0,0,1-52.7,394.9Z" stroke="#fff" stroke-width="2"/>
        </g>
        <path id="path70" d="M-41.2,354.2H-67v28.6h28.6V354.2Zm0,25.9h-23v-23h23v23Z" fill="#fff"/>
      </g>
      <g id="g82">
        <g id="g78">
          <path id="path74" d="M3.7,395.5a26.3,26.3,0,1,1,0-52.6A26.418,26.418,0,0,1,30,369.3,26.247,26.247,0,0,1,3.7,395.5Z" stroke="#fff" stroke-width="2"/>
        </g>
        <path id="path80" d="M19.7,377.3l-16-27.6-16,27.6-1.6,2.8H21.3Zm-15.9,0H-8.9L3.8,355.4l12.7,21.9Z" fill="#fff"/>
      </g>
    </g>
  </g>
</svg>
