<svg xmlns="http://www.w3.org/2000/svg" xmlns:xlink="http://www.w3.org/1999/xlink" width="806.1" height="598.933" viewBox="0 0 806.1 598.933">
  <defs>
    <linearGradient id="linear-gradient" x1="0.5" x2="0.5" y2="1" gradientUnits="objectBoundingBox">
      <stop offset="0" stop-color="#d52ab8"/>
      <stop offset="0.217" stop-color="#a85794"/>
      <stop offset="1" stop-color="#08f711"/>
    </linearGradient>
  </defs>
  <g id="base" transform="translate(0 -0.033)">
    <path id="path91" d="M898.3,515.7c-2.9-15.5-17.7-102.5-32-144.6-9.4-27.7-13.1-53-17-64.9-12-35.7-33-65.7-33-65.7s-9.5-13.1-10.1-16.3c-.6-3.3-4.7-8.6-4.7-8.6s-17.4-5.7-62.3-5.7-53.7,5-53.7,5a22.515,22.515,0,0,1-5.9,4.8c-3.5,1.8-11.7,1.7-11.7,1.7H634.5a1.008,1.008,0,0,0-.9.3,5.3,5.3,0,0,0-.6,2H366.9a7.134,7.134,0,0,0-.6-2,1.061,1.061,0,0,0-.9-.3H332s-8.2.2-11.7-1.7a20.514,20.514,0,0,1-5.9-4.8s-8.8-5-53.7-5c-44.8,0-62.3,5.7-62.3,5.7s-4.1,5.3-4.7,8.6-10.1,16.3-10.1,16.3-21,30-33,65.7c-4,11.9-7.7,37.2-17,64.9-14.3,42.1-29.1,129.1-32,144.6-4.3,23.2-4.6,90.2-4.6,90.2s4.5,53.4,36.2,74.9,56.7,14,56.7,14,33.1-8.2,57.8-41.9,56.6-129.2,56.6-129.2a24.5,24.5,0,0,1,5.7-5.3,15.791,15.791,0,0,1,6.3-2.6l183.7.1,183.7-.1a15.791,15.791,0,0,1,6.3,2.6,24.5,24.5,0,0,1,5.7,5.3s31.9,95.4,56.6,129.2,57.8,41.9,57.8,41.9,25,7.5,56.7-14S903,605.9,903,605.9,902.7,538.9,898.3,515.7Z" transform="translate(-97 -97.1)" fill="url(#linear-gradient)"/>
    <g id="base-2" data-name="base" transform="translate(-97 -97.067)">
      <g id="g129">
        <g id="g127">
          <g id="g125">
            <g id="g95" opacity="0.06">
              <path id="path93" d="M133.6,373.1c9.4-27.7,13.1-53,17-64.9,12-35.7,33-65.7,33-65.7s9.5-13.1,10.1-16.3c.6-3.3,4.7-8.6,4.7-8.6s17.4-5.7,62.3-5.7c44.8,0,53.7,5,53.7,5a22.515,22.515,0,0,0,5.9,4.8c3.5,1.8,11.7,1.7,11.7,1.7h33.4a1.008,1.008,0,0,1,.9.3,5.3,5.3,0,0,1,.6,2H633.1a7.135,7.135,0,0,1,.6-2,1.061,1.061,0,0,1,.9-.3H668s8.2.2,11.7-1.7a20.514,20.514,0,0,0,5.9-4.8s8.8-5,53.7-5,62.3,5.7,62.3,5.7,4.1,5.3,4.7,8.6,10.1,16.3,10.1,16.3,21,30,33,65.7c4,11.9,7.7,37.2,17,64.9,14.3,42.1,29.1,129.1,32,144.6,3.9,20.9,4.6,77.3,4.7,88.3v-.1s-.3-66.9-4.7-90.1c-2.9-15.5-17.7-102.5-32-144.6-9.4-27.7-13.1-53-17-64.9-12-35.7-33-65.7-33-65.7s-9.5-13.1-10.1-16.3c-.6-3.3-4.7-8.6-4.7-8.6s-17.4-5.7-62.3-5.7-53.7,5-53.7,5a22.515,22.515,0,0,1-5.9,4.8c-3.5,1.8-11.7,1.7-11.7,1.7H634.6a1.008,1.008,0,0,0-.9.3,5.3,5.3,0,0,0-.6,2H366.9a7.134,7.134,0,0,0-.6-2,1.061,1.061,0,0,0-.9-.3H332s-8.2.2-11.7-1.7a20.514,20.514,0,0,1-5.9-4.8s-8.8-5-53.7-5c-44.8,0-62.3,5.7-62.3,5.7s-4.1,5.3-4.7,8.6-10.1,16.3-10.1,16.3-21,30-33,65.7c-4,11.9-7.7,37.2-17,64.9-14.3,42.1-29.1,129.1-32,144.6-4.3,23.1-4.6,90.1-4.6,90.1v.1c.1-10.9.7-67.4,4.7-88.3C104.6,502.3,119.3,415.2,133.6,373.1Z" fill="#fff"/>
            </g>
            <path id="path97" d="M448.2,457.1a76.5,76.5,0,0,0-153,0,13.4,13.4,0,0,0,.1,2c0,.7-.1,1.3-.1,2a76.5,76.5,0,0,0,153,0,13.4,13.4,0,0,0-.1-2C448.1,458.4,448.2,457.7,448.2,457.1Z"/>
            <circle id="circle99" cx="73" cy="73" r="73" transform="translate(298.7 380.1)"/>
            <circle id="circle101" cx="51.5" cy="51.5" r="51.5" transform="translate(320.2 401.6)"/>
            <path id="path103" d="M704.8,457.1a76.5,76.5,0,0,0-153,0,13.405,13.405,0,0,0,.1,2c0,.7-.1,1.3-.1,2a76.5,76.5,0,0,0,153,0,13.405,13.405,0,0,0-.1-2A14.087,14.087,0,0,0,704.8,457.1Z"/>
            <circle id="circle105" cx="73" cy="73" r="73" transform="translate(555.3 380.1)"/>
            <circle id="circle107" cx="51.5" cy="51.5" r="51.5" transform="translate(576.8 401.6)"/>
            <path id="path109" d="M631.8,225.1a6.568,6.568,0,0,0-6.5-5.6H374.7a6.481,6.481,0,0,0-6.5,5.6,14.768,14.768,0,0,0-.1,2.1V354.6a16.09,16.09,0,0,0,16.1,16.1H615.8a16.089,16.089,0,0,0,16.1-16.1V227.2A7.41,7.41,0,0,0,631.8,225.1Z" fill="#121212"/>
            <circle id="circle111" cx="94.3" cy="94.3" r="94.3" transform="translate(655 247.6)" fill="#080808"/>
            <g id="g123">
              <circle id="circle113" cx="94.3" cy="94.3" r="94.3" transform="translate(156.4 247.6)" fill="#080808"/>
              <path id="path115" d="M327.4,351.2l9.5-8.9a1.151,1.151,0,0,0,0-1.7l-9.5-8.9a1.115,1.115,0,0,0-1.9.8v17.8A1.147,1.147,0,0,0,327.4,351.2Z" fill="#fff"/>
              <path id="path117" d="M242,266.9h17.8a1.115,1.115,0,0,0,.8-1.9l-8.9-9.5a1.151,1.151,0,0,0-1.7,0l-8.9,9.5A1.171,1.171,0,0,0,242,266.9Z" fill="#fff"/>
              <path id="path119" d="M174.5,331.7l-9.5,8.9a1.151,1.151,0,0,0,0,1.7l9.5,8.9a1.115,1.115,0,0,0,1.9-.8V332.6A1.125,1.125,0,0,0,174.5,331.7Z" fill="#fff"/>
              <path id="path121" d="M259.8,415.9H242a1.115,1.115,0,0,0-.8,1.9l8.9,9.5a1.151,1.151,0,0,0,1.7,0l8.9-9.5A1.171,1.171,0,0,0,259.8,415.9Z" fill="#fff"/>
            </g>
          </g>
        </g>
      </g>
      <g id="g221">
        <g id="g207">
          <circle id="circle193" cx="4.1" cy="4.1" r="4.1" transform="translate(495.9 409.4)"/>
          <circle id="circle195" cx="4.1" cy="4.1" r="4.1" transform="translate(495.9 388.5)"/>
          <circle id="circle197" cx="4.1" cy="4.1" r="4.1" transform="translate(489 398.7)"/>
          <circle id="circle199" cx="4.1" cy="4.1" r="4.1" transform="translate(474.3 398.7)"/>
          <circle id="circle201" cx="4.1" cy="4.1" r="4.1" transform="translate(481.6 409.4)"/>
          <circle id="circle203" cx="4.1" cy="4.1" r="4.1" transform="translate(481.6 388.5)"/>
          <circle id="circle205" cx="4.1" cy="4.1" r="4.1" transform="translate(467.3 388.5)"/>
        </g>
        <g id="g219">
          <circle id="circle209" cx="4.1" cy="4.1" r="4.1" transform="translate(502.8 398.7)"/>
          <circle id="circle211" cx="4.1" cy="4.1" r="4.1" transform="translate(517.5 398.7)"/>
          <circle id="circle213" cx="4.1" cy="4.1" r="4.1" transform="translate(510.1 409.4)"/>
          <circle id="circle215" cx="4.1" cy="4.1" r="4.1" transform="translate(510.1 388.5)"/>
          <circle id="circle217" cx="4.1" cy="4.1" r="4.1" transform="translate(524.5 388.5)"/>
        </g>
      </g>
      <g id="g247" opacity="0.12">
        <path id="path223" d="M500,416.6a4.193,4.193,0,0,1-4.1-3.6c0,.2-.1.3-.1.5a4.1,4.1,0,0,0,8.2,0,.9.9,0,0,0-.1-.5A3.852,3.852,0,0,1,500,416.6Z" fill="#fff"/>
        <path id="path225" d="M500,396.7a4.055,4.055,0,0,0,4.1-4.1.9.9,0,0,0-.1-.5,4.116,4.116,0,0,1-4.1,3.6,4.193,4.193,0,0,1-4.1-3.6c0,.2-.1.3-.1.5A4.439,4.439,0,0,0,500,396.7Z" fill="#fff"/>
        <path id="path227" d="M497.2,402.8a.9.9,0,0,0-.1-.5,4.116,4.116,0,0,1-4.1,3.6,4.193,4.193,0,0,1-4.1-3.6c0,.2-.1.3-.1.5a4.055,4.055,0,0,0,4.1,4.1A4.165,4.165,0,0,0,497.2,402.8Z" fill="#fff"/>
        <path id="path229" d="M482.4,402.3a4.116,4.116,0,0,1-4.1,3.6,4.193,4.193,0,0,1-4.1-3.6c0,.2-.1.3-.1.5a4.1,4.1,0,1,0,8.2,0C482.5,402.6,482.5,402.5,482.4,402.3Z" fill="#fff"/>
        <path id="path231" d="M485.8,416.6a4.193,4.193,0,0,1-4.1-3.6c0,.2-.1.3-.1.5a4.1,4.1,0,1,0,8.2,0,.9.9,0,0,0-.1-.5A3.852,3.852,0,0,1,485.8,416.6Z" fill="#fff"/>
        <path id="path233" d="M485.8,396.7a4.055,4.055,0,0,0,4.1-4.1.9.9,0,0,0-.1-.5,4.116,4.116,0,0,1-4.1,3.6,4.193,4.193,0,0,1-4.1-3.6c0,.2-.1.3-.1.5A4.366,4.366,0,0,0,485.8,396.7Z" fill="#fff"/>
        <path id="path235" d="M475.6,392.6a.9.9,0,0,0-.1-.5,4.116,4.116,0,0,1-4.1,3.6,4.193,4.193,0,0,1-4.1-3.6c0,.2-.1.3-.1.5a4.055,4.055,0,0,0,4.1,4.1A4.229,4.229,0,0,0,475.6,392.6Z" fill="#fff"/>
        <path id="path237" d="M511,402.3a4.116,4.116,0,0,1-4.1,3.6,4.193,4.193,0,0,1-4.1-3.6c0,.2-.1.3-.1.5a4.1,4.1,0,1,0,8.2,0C511.1,402.6,511,402.5,511,402.3Z" fill="#fff"/>
        <path id="path239" d="M521.6,405.9a4.193,4.193,0,0,1-4.1-3.6c0,.2-.1.3-.1.5a4.1,4.1,0,1,0,8.2,0,.9.9,0,0,0-.1-.5A3.72,3.72,0,0,1,521.6,405.9Z" fill="#fff"/>
        <path id="path241" d="M514.3,416.6a4.193,4.193,0,0,1-4.1-3.6c0,.2-.1.3-.1.5a4.1,4.1,0,1,0,8.2,0,.9.9,0,0,0-.1-.5A3.852,3.852,0,0,1,514.3,416.6Z" fill="#fff"/>
        <path id="path243" d="M514.3,396.7a4.055,4.055,0,0,0,4.1-4.1.9.9,0,0,0-.1-.5,4.116,4.116,0,0,1-4.1,3.6,4.193,4.193,0,0,1-4.1-3.6c0,.2-.1.3-.1.5A4.366,4.366,0,0,0,514.3,396.7Z" fill="#fff"/>
        <path id="path245" d="M528.6,395.7a4.193,4.193,0,0,1-4.1-3.6c0,.2-.1.3-.1.5a4.1,4.1,0,1,0,8.2,0,.9.9,0,0,0-.1-.5A3.852,3.852,0,0,1,528.6,395.7Z" fill="#fff"/>
      </g>
      <path id="path249" d="M533.6,518.1H465.7c-2.8,0-4.6.6-4.6-2.2h0a5.015,5.015,0,0,1,5-5H534a5.015,5.015,0,0,1,5,5h0C539.1,518.6,536.4,518.1,533.6,518.1Z" fill="#0b0b0f"/>
      <path id="path251" d="M505.3,515.9H468.8a.9.9,0,0,1-.9-.9h0a2.006,2.006,0,0,1,2-2h34.2a2.006,2.006,0,0,1,2,2h0A.765.765,0,0,1,505.3,515.9Z"/>
      <path id="path253" d="M527.5,516.7h-4.2a1.752,1.752,0,0,1-1.7-1.7h0a2.8,2.8,0,0,1,2.8-2.8h1.9a2.8,2.8,0,0,1,2.8,2.8h0A1.5,1.5,0,0,1,527.5,516.7Z"/>
      <g id="g264">
        <g id="g262">
          <path id="path255" d="M627.4,221.4a1.9,1.9,0,0,0-1.9-1.9H374.4a1.9,1.9,0,0,0-1.9,1.9V350.6a15.62,15.62,0,0,0,15.6,15.6H611.9a15.62,15.62,0,0,0,15.6-15.6V227.5Z" fill="#080808"/>
          <g id="g260" opacity="0.12">
            <path id="path258" d="M372.5,350.6a15.62,15.62,0,0,0,15.6,15.6H611.9a15.62,15.62,0,0,0,15.6-15.6V244.1h-255Z"/>
          </g>
        </g>
      </g>
      <g id="g320">
        <circle id="circle310" cx="20.2" cy="20.2" r="20.2" transform="translate(479.8 438.9)" fill="#050505" stroke="#000" stroke-miterlimit="10" stroke-width="2"/>
        <g id="g318">
          <path id="path312" d="M501.1,465.7V452.9a1.327,1.327,0,0,1,.3-1,.574.574,0,0,1,.7-.2c.6.2.9.7.9,1.7v6.9a4.552,4.552,0,0,0,2.1.5,2.767,2.767,0,0,0,1.6-.5c1-.7,1.5-1.9,1.5-3.7a6.492,6.492,0,0,0-1.2-4.3,8.79,8.79,0,0,0-4.1-2.6c-1.3-.4-2.5-.8-3.6-1.1s-2-.5-2.9-.7v12.2h0v2.7h0v1.7h0V467h0v1.5l4.7,1.5v-3.6h0Z" fill="#f2f2f2"/>
          <path id="path314" d="M496,464.7l-1.7.6-.9.4-1.6.3-1.5-.2c-.3-.2-.4-.4-.2-.6.1-.1.2-.1.3-.2s.3-.1.4-.2l1.1-.4,4.1-1.5v-2.7l-1.7.5-5.5,2-1,.4c-1.5.6-2.2,1.2-2.2,1.8.1.8,1,1.5,2.7,1.9a15.21,15.21,0,0,0,4.3.5,20.2,20.2,0,0,0,3.3-.3v-2.3h.1Z" fill="#f2f2f2"/>
          <path id="path316" d="M511.8,462.4a12.885,12.885,0,0,0-2.5-.6,10.478,10.478,0,0,0-2.5-.1,26.609,26.609,0,0,0-2.8.3,15.255,15.255,0,0,0-2.6.8v2.8l3.9-1.4,1.6-.5,1.1-.3h1.4c.3.1.6.2.7.4,0,.2-.2.4-.8.6l-1.4.5-6.5,2.4V470l3.5-1.3,6.4-2.3.7-.4c1.5-.5,2.2-1.2,2.2-1.9C514.2,463.5,513.4,462.9,511.8,462.4Z" fill="#f2f2f2"/>
        </g>
      </g>
      <g id="g338">
        <g id="g328">
          <g id="g326">
            <path id="path322" d="M794.2,207a2.144,2.144,0,0,0-1.1-1.9c-4.5-2.9-23.4-13.6-51.5-13.6-26.9,0-41.1,5.9-45.1,8a2.2,2.2,0,0,0-1.2,2s9.8-2.9,47.5-2.9S794.2,207,794.2,207Z" fill="#0a0a0a"/>
            <path id="path324" d="M794.1,213.9h0V207s-13.7-8.4-51.4-8.4c-37.8,0-47.5,2.9-47.5,2.9v11h0c7.7-1.3,21.2-2.6,44.1-2.6C767.8,210,785.2,212.3,794.1,213.9Z" fill="#121212"/>
          </g>
        </g>
        <g id="g336">
          <g id="g334">
            <path id="path330" d="M205.8,207a2.144,2.144,0,0,1,1.1-1.9c4.5-2.9,23.4-13.6,51.5-13.6,26.9,0,41.1,5.9,45.1,8a2.2,2.2,0,0,1,1.2,2s-9.8-2.9-47.5-2.9S205.8,207,205.8,207Z" fill="#0a0a0a"/>
            <path id="path332" d="M205.9,213.9h0V207s13.7-8.4,51.4-8.4c37.8,0,47.5,2.9,47.5,2.9v11h0c-7.7-1.3-21.2-2.6-44.1-2.6C232.2,210,214.8,212.3,205.9,213.9Z" fill="#121212"/>
          </g>
        </g>
      </g>
      <g id="g376">
        <g id="g356">
          <g id="g354">
            <g id="g344">
              <path id="path340" d="M794.2,187.9s-32.7-3.2-50.6-3.2-48.4,2.4-48.4,2.4,3.1-44.7,4.8-52c1.6-7.3,7.7-21.3,16.9-27.9s11.9-10.1,22.7-10.1,25.4,6.4,34.6,21.4C783.5,133.5,794.2,187.9,794.2,187.9Z" fill="#121212"/>
              <path id="path342" d="M695.7,180.3s26.1-4.4,49-4.4c22.8,0,47.9,4.4,47.9,4.4,1,4.7,1.6,7.6,1.6,7.6s-32.7-3.2-50.6-3.2-48.4,2.4-48.4,2.4S695.4,184.4,695.7,180.3Z" fill="#0a0a0a"/>
            </g>
            <g id="g352" opacity="0.08">
              <g id="g348">
                <path id="path346" d="M745.7,162.8c-2.1,1.7-3.2,2.6-3.2,2.6a6.705,6.705,0,0,0-2,4.5h9.8v-2.6H744a6.705,6.705,0,0,1,2.1-1.9,12.467,12.467,0,0,0,2.7-2.1,4.771,4.771,0,0,0,1.3-3.3,4.223,4.223,0,0,0-1.4-3.3,5.13,5.13,0,0,0-3.5-1.2c-3.1,0-4.7,1.7-4.7,5h2.7q0-2.7,2.1-2.7a1.827,1.827,0,0,1,2,2.1C747.5,161,746.9,161.9,745.7,162.8Z" fill="#fff"/>
              </g>
              <path id="path350" d="M728.1,164.3h3c1.5,0,2.3.6,2.4,1.9.1,1.2.2,2.5.3,3.8h3.3v-.4c-.5-.2-.7-.7-.7-1.5a2.815,2.815,0,0,1,.1-.8v-.7a3.564,3.564,0,0,0-1.8-3.5,3.25,3.25,0,0,0,2.2-3.4,3.542,3.542,0,0,0-1.3-3,4.722,4.722,0,0,0-3.2-1h-7.3V170h3Zm0-6.2h3.7c1.4,0,2.1.6,2.1,1.9s-.8,1.9-2.3,1.9h-3.5Z" fill="#fff"/>
            </g>
          </g>
        </g>
        <g id="g374">
          <g id="g372">
            <g id="g362">
              <path id="path358" d="M205.8,187.9s32.7-3.2,50.6-3.2,48.3,2.4,48.3,2.4-3.1-44.7-4.8-52c-1.6-7.3-7.7-21.3-16.9-27.9-9.1-6.7-11.8-10.1-22.6-10.1s-25.4,6.4-34.6,21.4S205.8,187.9,205.8,187.9Z" fill="#121212"/>
              <path id="path360" d="M304.3,180.3s-26.1-4.4-49-4.4c-22.8,0-47.9,4.4-47.9,4.4-1,4.7-1.6,7.6-1.6,7.6s32.7-3.2,50.6-3.2,48.3,2.4,48.3,2.4S304.6,184.4,304.3,180.3Z" fill="#0a0a0a"/>
            </g>
            <g id="g370" opacity="0.08">
              <g id="g366">
                <path id="path364" d="M270.3,162.8c-2.1,1.7-3.2,2.6-3.2,2.6a6.705,6.705,0,0,0-2,4.5h9.8v-2.6h-6.2a6.705,6.705,0,0,1,2.1-1.9,12.468,12.468,0,0,0,2.7-2.1,4.771,4.771,0,0,0,1.3-3.3,4.223,4.223,0,0,0-1.4-3.3,5.13,5.13,0,0,0-3.5-1.2c-3.1,0-4.7,1.7-4.7,5h2.7q0-2.7,2.1-2.7a1.827,1.827,0,0,1,2,2.1C272.1,161,271.5,161.9,270.3,162.8Z" fill="#fff"/>
              </g>
              <path id="polygon368" d="M261.8,167.3h-7V155.6h-3.1v14.3h10.1Z" fill="#fff"/>
            </g>
          </g>
        </g>
      </g>
    </g>
  </g>
</svg>
