<svg xmlns="http://www.w3.org/2000/svg" width="286" height="94" viewBox="0 0 286 94">
  <g id="sticks" transform="translate(816 -494)">
    <g id="g12">
      <g id="g8">
        <path id="path4" d="M-769,586.5A45.537,45.537,0,0,1-814.5,541,45.537,45.537,0,0,1-769,495.5,45.537,45.537,0,0,1-723.5,541,45.537,45.537,0,0,1-769,586.5Z" fill="#242629"/>
        <path id="path6" d="M-769,497a44,44,0,0,1,44,44,44,44,0,0,1-44,44,44,44,0,0,1-44-44,44,44,0,0,1,44-44m0-3a46.946,46.946,0,0,0-47,47,46.946,46.946,0,0,0,47,47,46.946,46.946,0,0,0,47-47,46.946,46.946,0,0,0-47-47Z" fill="#242629"/>
      </g>
    </g>
    <g id="g28">
      <g id="g18">
        <path id="path14" d="M-577,586.5A45.537,45.537,0,0,1-622.5,541,45.537,45.537,0,0,1-577,495.5,45.537,45.537,0,0,1-531.5,541,45.537,45.537,0,0,1-577,586.5Z" fill="#fff"/>
        <path id="path16" d="M-577,497a44,44,0,0,1,44,44,44,44,0,0,1-44,44,44,44,0,0,1-44-44,44,44,0,0,1,44-44m0-3a46.946,46.946,0,0,0-47,47,46.946,46.946,0,0,0,47,47,46.946,46.946,0,0,0,47-47,46.946,46.946,0,0,0-47-47Z" fill="#fff"/>
      </g>
    </g>
    <g id="g44">
      <g id="g34">
        <path id="path30" d="M-673,586.5A45.537,45.537,0,0,1-718.5,541,45.537,45.537,0,0,1-673,495.5,45.537,45.537,0,0,1-627.5,541,45.537,45.537,0,0,1-673,586.5Z" fill="#fff"/>
        <path id="path32" d="M-673,497a44,44,0,0,1,44,44,44,44,0,0,1-44,44,44,44,0,0,1-44-44,44,44,0,0,1,44-44m0-3a46.946,46.946,0,0,0-47,47,46.946,46.946,0,0,0,47,47,46.946,46.946,0,0,0,47-47,46.946,46.946,0,0,0-47-47Z" fill="#fff"/>
      </g>
    </g>
  </g>
</svg>
