<svg xmlns="http://www.w3.org/2000/svg" width="71.263" height="128.64" viewBox="0 0 71.263 128.64">
  <g id="dpad" transform="translate(0.354 0.354)">
    <g id="g28">
      <g id="Up">
        <g id="g6">
          <path id="path2" d="M40.432,41.552V7.333a1.064,1.064,0,0,1,.014-.142l.06-.227c.029-.041.066-.107.082-.133.495-.809,2.1-1.517,4.535-1.992.305-.068.594-.126.889-.182a9.59,9.59,0,0,1,.958-.135,1.315,1.315,0,0,0,.163-.026c.255-.029.578-.072.906-.111s.674-.076,1.018-.109c.364-.034.693-.06,1.023-.083l2.369-.077c.353-.008.7-.012,1.047-.012,7.325,0,13.063,1.418,13.063,3.229,0,.172,0,15.928,0,34.219L53.495,54.6Z" fill="#fff" stroke="#374dcc" stroke-width="0.5"/>
          <path id="path4" d="M53.495,4.6c8.089,0,12.563,1.613,12.563,2.729,0,.015,0,.029,0,.044V41.345L53.495,53.9,40.932,41.344V7.336a.278.278,0,0,1,0-.043h0a.052.052,0,0,1,0-.011v0c.013-.035.029-.094.039-.134l.036-.055c.153-.25.906-1.114,4.186-1.759.02,0,.041-.007.061-.012.272-.062.555-.119.833-.171l.081-.014c.333-.061.6-.1.795-.114A1.3,1.3,0,0,0,47.158,5c.309-.042.612-.082.919-.119l.024,0c.328-.04.663-.075,1-.107h0l.039,0c.32-.03.645-.056.966-.078l.117-.006c.19-.008.382-.013.574-.017l.4-.01c.068,0,.135-.005.169-.008.325-.013.651-.025.979-.033h.124c.342-.007.686-.011,1.029-.011m0-1c-.35,0-.7,0-1.052.012l-.125,0c-.333.008-.664.02-.994.033-.055,0-.11.006-.166.008-.327.01-.654.014-.977.028l-.138.007c-.335.023-.668.05-1,.081-.014,0-.027,0-.041,0-.348.033-.691.07-1.027.11h0c-.331.04-.656.083-.989.128a.263.263,0,0,1-.059.007,9.135,9.135,0,0,0-.938.13l-.074.012c-.3.057-.6.116-.88.181l-.013,0c-2.427.475-4.25,1.215-4.865,2.222a.579.579,0,0,0-.106.165l-.009.017c-.015.06-.029.12-.044.182-.007.019-.012.027-.017.041-.012.045-.024.093-.033.142a1.549,1.549,0,0,0-.02.216V41.759L53.493,55.311,67.057,41.759V7.334h0c0-2.5-6.794-3.729-13.561-3.729Z" fill="#fff" stroke="#374dcc" stroke-width="0.5"/>
        </g>
        <path id="path8" d="M45.026,4.347l.013,0c.284-.064.579-.124.88-.181l.074-.012a9.379,9.379,0,0,1,.938-.13.263.263,0,0,0,.059-.007c.333-.045.658-.088.989-.128h0c.336-.041.679-.077,1.027-.11.014,0,.027,0,.041,0,.328-.031.661-.057,1-.081l.138-.007c.323-.014.649-.018.977-.028.056,0,.111,0,.166-.008.33-.013.661-.025.994-.033l.125,0c.35-.008.7-.012,1.052-.012C60.265,3.6,67.06,4.83,67.06,7.332L69.815,4.56c-.9-1.367-2.715-2.707-6.145-3.524A44.642,44.642,0,0,0,53.495,0a44.378,44.378,0,0,0-10.18,1.036C40.375,1.753,38.6,2.832,37.59,4l2.57,2.57C40.776,5.563,42.6,4.822,45.026,4.347Z" fill="#fff" stroke="#374dcc" stroke-width="0.5"/>
        <path id="path10" d="M67.058,7.333h0s0,15.442,0,34.425l3.6-3.625V7.333a4.986,4.986,0,0,0-.846-2.773L67.058,7.333Z" fill="#fff" stroke="#374dcc" stroke-width="0.5"/>
        <path id="path12" d="M39.932,7.333a1.4,1.4,0,0,1,.02-.216c.009-.049.021-.1.033-.142.005-.014.01-.022.017-.041.015-.062.028-.122.045-.183l.009-.017a.6.6,0,0,1,.106-.165L37.592,4A4.945,4.945,0,0,0,36.33,7.333v30.8l3.6,3.625C39.932,27.929,39.932,15.075,39.932,7.333Z" fill="#fff" stroke="#374dcc" stroke-width="0.5"/>
      </g>
      <g id="Down">
        <g id="g19" transform="translate(-0.014)">
          <path id="path15" d="M17.166,51.211c-7.132,0-12.742-1.323-13.049-3.078a.972.972,0,0,1-.014-.148V13.768L17.166.707,30.23,13.769V47.986a.952.952,0,0,1-.015.152C29.909,49.888,24.3,51.211,17.166,51.211Z" fill="#fff" stroke="#374dcc" stroke-width="0.5"/>
          <path id="path17" d="M17.166,1.414,29.73,13.976V47.985a.562.562,0,0,1-.006.063c-.195,1.117-4.668,2.664-12.558,2.664S4.805,49.165,4.61,48.056a.6.6,0,0,1-.008-.07V13.976L17.166,1.414m0-1.414L3.6,13.562V47.986h0a1.429,1.429,0,0,0,.021.234c.408,2.329,6.975,3.491,13.542,3.491S30.3,50.549,30.707,48.22a1.439,1.439,0,0,0,.021-.234V13.562L17.166,0Z" fill="#fff" stroke="#374dcc" stroke-width="0.5"/>
        </g>
        <path id="path21" d="M30.729,47.985l2.754,2.77a5,5,0,0,0,.846-2.77v-30.8l-3.6-3.62C30.729,27.387,30.729,40.24,30.729,47.985Z" fill="#fff" stroke="#374dcc" stroke-width="0.5"/>
        <path id="path23" d="M30.708,48.22c-.407,2.329-6.975,3.491-13.542,3.491S4.032,50.549,3.624,48.22a1.439,1.439,0,0,1-.021-.234L.818,50.757c.929,1.367,2.743,2.7,6.168,3.522a44.459,44.459,0,0,0,10.18,1.041,44.732,44.732,0,0,0,10.175-1.041c3.43-.82,5.243-2.157,6.143-3.524l-2.754-2.77A1.57,1.57,0,0,1,30.708,48.22Z" fill="#fff" stroke="#374dcc" stroke-width="0.5"/>
        <path id="path25" d="M3.6,47.985h0V13.561L0,17.182v31.65l.093.236a5.126,5.126,0,0,0,.724,1.689L3.6,47.985Z" fill="#fff" stroke="#374dcc" stroke-width="0.5"/>
      </g>
    </g>
    <g id="g56">
      <g id="Right">
        <g id="g34">
          <path id="path30" d="M13.771,87.558.708,74.5,13.771,61.445H47.983c1.809,0,3.226,5.735,3.226,13.057s-1.417,13.057-3.226,13.057H13.771Z" fill="#fff" stroke="#374dcc" stroke-width="0.5"/>
          <path id="path32" d="M47.983,61.945c1.138,0,2.726,4.777,2.726,12.556s-1.588,12.557-2.726,12.557H13.978L1.415,74.5,13.978,61.945H47.983m0-1H13.564L0,74.5,13.564,88.059H47.983c4.968,0,4.968-27.114,0-27.114Z" fill="#fff" stroke="#374dcc" stroke-width="0.5"/>
        </g>
        <path id="path36" d="M47.983,60.945l2.755-2.778a4.983,4.983,0,0,0-2.755-.846H17.165l-3.6,3.625Z" fill="#fff" stroke="#374dcc" stroke-width="0.5"/>
        <path id="path38" d="M47.983,88.058H13.564l3.6,3.62H49.479l.34-.345a6.244,6.244,0,0,0,.925-.5l-2.761-2.777Z" fill="#fff" stroke="#374dcc" stroke-width="0.5"/>
        <path id="path40" d="M50.738,58.167l-2.755,2.778c4.967,0,4.967,27.113,0,27.113l2.76,2.777c1.369-.93,2.705-2.747,3.548-6.147A45.3,45.3,0,0,0,55.323,74.5a45.292,45.292,0,0,0-1.032-10.188C53.447,60.907,52.111,59.1,50.738,58.167Z" fill="#fff" stroke="#374dcc" stroke-width="0.5"/>
      </g>
      <g id="left">
        <g id="g47">
          <path id="path43" d="M7.34,123.916c-1.82,0-3.247-5.735-3.247-13.057S5.52,97.8,7.34,97.8H41.553l13.063,13.052L41.553,123.917H7.34Z" fill="#fff" stroke="#374dcc" stroke-width="0.5"/>
          <path id="path45" d="M41.346,98.3l12.563,12.552L41.346,123.416H7.34c-1.147,0-2.746-4.776-2.746-12.556S6.194,98.3,7.341,98.3H41.346m.414-1H7.34c-4.995,0-4.995,27.113,0,27.113H41.76l13.563-13.562L41.76,97.3Z" fill="#fff" stroke="#374dcc" stroke-width="0.5"/>
        </g>
        <path id="path49" d="M41.76,97.3l-3.6-3.625H7.341a5.082,5.082,0,0,0-2.784.846L7.341,97.3Z" fill="#fff" stroke="#374dcc" stroke-width="0.5"/>
        <path id="path51" d="M7.34,97.3h0L4.557,94.525c-1.367.93-2.679,2.74-3.525,6.143A45.28,45.28,0,0,0,0,110.854a45.314,45.314,0,0,0,1.032,10.193c.845,3.4,2.158,5.212,3.525,6.143l2.783-2.774C2.345,124.416,2.345,97.3,7.34,97.3Z" fill="#fff" stroke="#374dcc" stroke-width="0.5"/>
        <path id="path53" d="M7.34,124.416,4.557,127.19a5.076,5.076,0,0,0,2.783.846H38.157l3.6-3.62Z" fill="#fff" stroke="#374dcc" stroke-width="0.5"/>
      </g>
    </g>
  </g>
</svg>
